#!OML:ASF F:\VICON\USERDATA\INSTALL\rory3\rory3.ASF
:FULLY-SPECIFIED
:DEGREES
2143
root 2.69334 17.7681 -2.34209 165.914 65.2783 147.118
lowerback 13.7019 1.0799 1.56179
upperback 7.47708 2.61504 8.8108
thorax -0.120275 1.53923 8.1204
lowerneck -9.16645 -13.729 -8.94371
upperneck 30.0472 -18.349 7.4982
head 13.1843 -7.75874 1.71867
rclavicle 6.36111e-015 6.99722e-014
rhumerus 9.72135 -0.937053 -94.1462
rradius 35.7384
rwrist -15.3518
rhand -25.4823 -23.1336
rfingers 7.12502
rthumb 1.04574 -53.1108
lclavicle 6.36111e-015 6.99722e-014
lhumerus -18.1901 -40.4225 104.558
lradius 58.8024
lwrist 80.9033
lhand -31.0641 45.7182
lfingers 7.12502
lthumb -4.34507 -1004.35
rfemur -43.1444 -7.40644 5.28908
rtibia 38.7367
rfoot -13.8534 -12.349
rtoes 17.9777
lfemur -15.3314 -2.60372 -23.2203
ltibia 25.1281
lfoot -5.77064 -7.47806
ltoes -30.6945
2144
root 2.62634 17.7611 -2.39926 166.116 65.743 147.337
lowerback 13.6947 0.989943 1.42794
upperback 7.48655 2.48151 8.85724
thorax -0.0943568 1.4676 8.27127
lowerneck -9.47637 -13.5308 -9.02889
upperneck 30.2582 -18.0259 7.35389
head 13.2967 -7.62943 1.71226
rclavicle 6.36111e-014 4.13472e-014
rhumerus 9.84705 -2.59631 -93.5191
rradius 36.0411
rwrist -16.4474
rhand -26.7688 -23.5733
rfingers 7.12502
rthumb -0.196755 -53.553
lclavicle 6.36111e-014 4.13472e-014
lhumerus -17.4894 -41.4154 104.901
lradius 58.7469
lwrist 80.3509
lhand -29.5133 45.9607
lfingers 7.12502
lthumb -2.84742 -1004.08
rfemur -43.2278 -6.99845 5.18661
rtibia 38.3524
rfoot -13.6722 -12.4675
rtoes 18.6762
lfemur -15.0434 -2.83626 -23.3081
ltibia 24.5007
lfoot -6.46037 -6.7737
ltoes -30.1014
2145
root 2.55841 17.7542 -2.45176 165.989 66.2465 147.177
lowerback 13.6406 0.924438 1.17482
upperback 7.50314 2.34072 8.72506
thorax -0.0320323 1.38438 8.29528
lowerneck -9.74152 -13.311 -8.91819
upperneck 30.4007 -17.7547 7.35117
head 13.3708 -7.49119 1.72564
rclavicle 0 8.90555e-014
rhumerus 10.0356 -4.73126 -93.2766
rradius 36.2689
rwrist -16.9581
rhand -28.2413 -24.0325
rfingers 7.12502
rthumb -1.61897 -54.0061
lclavicle 0 8.90555e-014
lhumerus -16.7554 -42.5656 104.966
lradius 58.7685
lwrist 79.9607
lhand -27.7313 46.2201
lfingers 7.12502
lthumb -1.12641 -1003.8
rfemur -43.3703 -6.36187 4.90661
rtibia 37.9782
rfoot -13.5336 -12.8216
rtoes 19.2355
lfemur -14.7963 -2.76809 -23.5379
ltibia 23.9648
lfoot -7.14773 -6.03193
ltoes -29.7925
2146
root 2.48788 17.7499 -2.50187 166.33 66.7821 147.421
lowerback 13.4349 0.787276 1.15792
upperback 7.50628 2.12473 8.58754
thorax 0.114847 1.26886 8.18782
lowerneck -9.76833 -13.0987 -8.71963
upperneck 30.2749 -17.4927 7.27691
head 13.2623 -7.38099 1.71369
rclavicle 3.18055e-015 2.8625e-014
rhumerus 10.2807 -6.81042 -93.0627
rradius 36.508
rwrist -17.235
rhand -29.6671 -24.5693
rfingers 7.12502
rthumb -2.99594 -54.528
lclavicle 3.18055e-015 2.8625e-014
lhumerus -15.9559 -43.7398 104.945
lradius 58.8195
lwrist 79.5095
lhand -25.8635 46.0529
lfingers 7.12502
lthumb 0.677533 -1003.97
rfemur -43.6282 -5.76226 4.85504
rtibia 37.6425
rfoot -13.395 -13.1625
rtoes 19.7834
lfemur -14.7652 -2.54599 -23.578
ltibia 23.5975
lfoot -7.83681 -5.38822
ltoes -29.2251
2147
root 2.41797 17.7367 -2.55007 166.62 67.3723 147.606
lowerback 13.1777 0.65047 1.04071
upperback 7.56012 1.89627 8.47405
thorax 0.341481 1.14326 8.16858
lowerneck -10.0304 -12.8374 -8.29638
upperneck 30.2711 -17.1403 6.96923
head 13.1943 -7.22278 1.58136
rclavicle -6.04305e-014 -3.49861e-014
rhumerus 10.703 -8.546 -92.636
rradius 36.5273
rwrist -17.4312
rhand -30.9037 -24.5972
rfingers 7.12502
rthumb -4.19016 -54.5358
lclavicle -6.04305e-014 -3.49861e-014
lhumerus -14.9279 -44.8465 104.687
lradius 58.8906
lwrist 78.9247
lhand -23.4456 45.5437
lfingers 7.12502
lthumb 3.01276 -1004.5
rfemur -44.0098 -6.01632 5.22715
rtibia 37.3042
rfoot -12.6304 -12.862
rtoes 19.5511
lfemur -14.7888 -2.34842 -23.626
ltibia 23.3612
lfoot -8.60221 -4.73525
ltoes -28.5656
2148
root 2.34839 17.7166 -2.59898 166.615 68.0416 147.598
lowerback 13.0614 0.635279 0.865142
upperback 7.65719 1.8245 8.28661
thorax 0.517244 1.09501 8.0778
lowerneck -10.4423 -12.581 -7.88383
upperneck 30.4459 -16.8456 6.84217
head 13.2652 -7.05166 1.49789
rclavicle -2.22639e-014 2.8625e-014
rhumerus 11.1574 -10.3284 -92.0729
rradius 36.4998
rwrist -17.4764
rhand -32.0212 -24.7749
rfingers 7.12502
rthumb -5.26917 -54.6894
lclavicle -2.22639e-014 2.8625e-014
lhumerus -13.8257 -46.2847 104.283
lradius 58.9382
lwrist 77.9709
lhand -20.9992 45.015
lfingers 7.12502
lthumb 5.37513 -1005.07
rfemur -44.5347 -7.86167 6.36544
rtibia 36.9783
rfoot -10.5534 -11.1969
rtoes 18.2559
lfemur -14.7622 -2.01151 -23.759
ltibia 23.2736
lfoot -9.42001 -4.08975
ltoes -28.012
2149
root 2.27625 17.7056 -2.65058 167.008 68.5997 147.964
lowerback 12.976 0.499598 0.78262
upperback 7.61422 1.61328 8.14902
thorax 0.547133 0.981687 8.00246
lowerneck -10.4808 -12.1839 -7.95475
upperneck 30.6257 -16.3665 7.11724
head 13.3427 -6.81095 1.69503
rclavicle -7.63333e-014 -1.36764e-013
rhumerus 11.4815 -11.9491 -91.4346
rradius 36.3417
rwrist -17.4754
rhand -32.8821 -25.3859
rfingers 7.12502
rthumb -6.10041 -55.278
lclavicle -7.63333e-014 -1.36764e-013
lhumerus -12.9031 -47.4833 104.056
lradius 58.9836
lwrist 76.8174
lhand -18.9282 44.6344
lfingers 7.12502
lthumb 7.37441 -1005.51
rfemur -44.7591 -7.63402 6.51191
rtibia 36.639
rfoot -10.2232 -11.0802
rtoes 19.2863
lfemur -14.8679 -1.77649 -23.8153
ltibia 23.2634
lfoot -10.2007 -3.34133
ltoes -27.6864
2150
root 2.19986 17.6961 -2.70739 167.15 69.0806 148.042
lowerback 12.886 0.00908741 0.299923
upperback 7.43794 0.912548 8.28052
thorax 0.501702 0.611012 8.52322
lowerneck -9.96154 -11.4484 -9.01216
upperneck 30.7544 -15.1831 7.33126
head 13.2999 -6.4037 2.17668
rclavicle -3.18055e-014 1.59028e-014
rhumerus 11.5155 -12.3359 -90.4672
rradius 36.0842
rwrist -17.3529
rhand -33.7049 -25.8361
rfingers 7.12502
rthumb -6.89474 -55.7038
lclavicle -3.18055e-014 1.59028e-014
lhumerus -12.1224 -47.346 104.184
lradius 59.0377
lwrist 75.3296
lhand -17.1095 44.2239
lfingers 7.12502
lthumb 9.12972 -1005.99
rfemur -45.0299 -7.61446 6.57538
rtibia 36.2944
rfoot -9.65471 -10.9543
rtoes 19.5401
lfemur -15.0146 -1.56583 -24.0591
ltibia 23.2631
lfoot -10.8973 -2.47147
ltoes -27.3919
2151
root 2.12172 17.6865 -2.76331 167.467 69.5326 148.32
lowerback 12.8598 -0.0842465 0.257846
upperback 7.41249 0.766346 8.13646
thorax 0.510199 0.53287 8.40654
lowerneck -10.1512 -11.2477 -8.90055
upperneck 30.8604 -14.9436 7.35912
head 13.351 -6.28009 2.20196
rclavicle 5.08889e-014 6.36111e-015
rhumerus 11.9465 -14.1865 -89.6496
rradius 35.9424
rwrist -16.9834
rhand -34.9815 -26.0491
rfingers 7.12502
rthumb -8.12692 -55.8728
lclavicle 5.08889e-014 6.36111e-015
lhumerus -10.9213 -49.1116 103.739
lradius 59.2639
lwrist 73.9087
lhand -15.3526 44.1231
lfingers 7.12502
lthumb 10.8247 -1006.18
rfemur -45.2715 -7.59645 6.69493
rtibia 35.9076
rfoot -9.08182 -10.9212
rtoes 19.7688
lfemur -15.1604 -1.3758 -24.2303
ltibia 23.2246
lfoot -11.5596 -1.57974
ltoes -26.9995
2152
root 2.04557 17.6789 -2.81804 168.159 70.0102 149.04
lowerback 12.8502 -0.259252 0.372636
upperback 7.40493 0.533475 7.98979
thorax 0.540605 0.417118 8.20658
lowerneck -10.3319 -11.054 -8.70129
upperneck 30.8604 -14.7485 7.41883
head 13.3541 -6.16961 2.21737
rclavicle -3.65764e-014 -8.90555e-014
rhumerus 12.2672 -15.6186 -88.8118
rradius 35.864
rwrist -16.7772
rhand -36.7942 -26.2724
rfingers 7.12502
rthumb -9.8761 -56.0207
lclavicle -3.65764e-014 -8.90555e-014
lhumerus -9.55501 -50.6844 102.997
lradius 59.378
lwrist 71.9803
lhand -12.8148 43.8362
lfingers 7.12502
lthumb 13.2717 -1006.61
rfemur -45.4135 -7.36829 6.85771
rtibia 35.5374
rfoot -8.80705 -11.0347
rtoes 20.5461
lfemur -15.2753 -1.28301 -24.2044
ltibia 23.1991
lfoot -12.14 -0.720563
ltoes -26.4877
